# xmcd
#
# Track frame offsets:
#	150
#	11531
#	28043
#	43603
#	57610
#	75025
#	92065
#	109043
#	126157
#	138512
#	150277
#	161737
#
# Disc length: 2396 seconds
#
# Revision: 1
# Processed by: cddbd v1.5.1PL0 Copyright (c) Steve Scherf et al.
# Submitted via: audiograbber 1.83.01
#
DISCID=8c095a0c
DTITLE=Johnny Sanders - Country In My Heart
DYEAR=1999
DGENRE=Country
TTITLE0=Chattahoochee
TTITLE1=Jukebox In My Mind
TTITLE2=Achy Breaky Heart
TTITLE3=Green Green Gras Of Home
TTITLE4=Living On Love
TTITLE5=The Dance
TTITLE6=Just To See You Smile
TTITLE7=Two Pina Coladas
TTITLE8=500 Miles Away From Home
TTITLE9=Little Bitty
TTITLE10=We Really Shouldn´t Be Doing This
TTITLE11=We Shall Be Free
EXTD=
EXTT0=
EXTT1=
EXTT2=
EXTT3=
EXTT4=
EXTT5=
EXTT6=
EXTT7=
EXTT8=
EXTT9=
EXTT10=
EXTT11=
PLAYORDER=
